<svg width="30" height="22" viewBox="0 0 30 22" fill="none" xmlns="http://www.w3.org/2000/svg">
<path fill-rule="evenodd" clip-rule="evenodd" d="M0.5 2.67059C0.5 1.71221 1.27692 0.935295 2.23529 0.935295H28.2647C29.2231 0.935295 30 1.71221 30 2.67059C30 3.62897 29.2231 4.40588 28.2647 4.40588H2.23529C1.27692 4.40588 0.5 3.62897 0.5 2.67059Z" fill="black"/>
<path fill-rule="evenodd" clip-rule="evenodd" d="M0.5 11C0.5 10.0416 1.27692 9.26471 2.23529 9.26471H28.2647C29.2231 9.26471 30 10.0416 30 11C30 11.9584 29.2231 12.7353 28.2647 12.7353H2.23529C1.27692 12.7353 0.5 11.9584 0.5 11Z" fill="black"/>
<path fill-rule="evenodd" clip-rule="evenodd" d="M0.5 19.3294C0.5 18.371 1.27692 17.5941 2.23529 17.5941H28.2647C29.2231 17.5941 30 18.371 30 19.3294C30 20.2878 29.2231 21.0647 28.2647 21.0647H2.23529C1.27692 21.0647 0.5 20.2878 0.5 19.3294Z" fill="black"/>
</svg>
