<svg width="35" height="35" viewBox="0 0 35 35" fill="none" xmlns="http://www.w3.org/2000/svg">
<path fill-rule="evenodd" clip-rule="evenodd" d="M0.732233 1.23223C1.70854 0.255922 3.29146 0.255922 4.26777 1.23223L33.7678 30.7322C34.7441 31.7085 34.7441 33.2915 33.7678 34.2678C32.7915 35.2441 31.2085 35.2441 30.2322 34.2678L0.732233 4.76777C-0.244078 3.79146 -0.244078 2.20854 0.732233 1.23223Z" fill="black"/>
<path fill-rule="evenodd" clip-rule="evenodd" d="M33.7678 1.23223C32.7915 0.255922 31.2085 0.255922 30.2322 1.23223L0.732231 30.7322C-0.244078 31.7085 -0.244078 33.2915 0.732231 34.2678C1.70854 35.2441 3.29146 35.2441 4.26777 34.2678L33.7678 4.76777C34.7441 3.79146 34.7441 2.20854 33.7678 1.23223Z" fill="black"/>
</svg>
